<mxfile host="Electron" agent="Mozilla/5.0 (Windows NT 10.0; Win64; x64) AppleWebKit/537.36 (KHTML, like Gecko) draw.io/26.2.2 Chrome/134.0.6998.178 Electron/35.1.2 Safari/537.36" version="26.2.2">
  <diagram name="Page-1" id="3-5rbfVEzBerPMTwVLg-">
    <mxGraphModel dx="910" dy="940" grid="1" gridSize="10" guides="1" tooltips="1" connect="1" arrows="1" fold="1" page="1" pageScale="1" pageWidth="850" pageHeight="1100" math="0" shadow="0">
      <root>
        <mxCell id="0" />
        <mxCell id="1" parent="0" />
        <mxCell id="9s_bkhRJLRccFdzS-PqJ-5" value="" style="shape=image;aspect=fixed;image=data:image/png,iVBORw0KGgoAAAANSUhEUgAAAQIAAANKCAIAAADuudcvAAAAAXNSR0IArs4c6QAAAARnQU1BAACxjwv8YQUAAAAJcEhZcwAADsMAAA7DAcdvqGQAAAASdEVYdFNvZnR3YXJlAEdyZWVuc2hvdF5VCAUAACjXSURBVHhe7Z1NayxJeqj1n/pXeGNDQf2HxisvmkK7AVELLQzN0LZ1dgbZBeM60DRCzOIcGAZk6kI3iKO7uN4NBtHoiFnPui/xkZkRb3zUR0ZlZWY8D7FQRWZGRlW+T0ZE1jn1Xv0GUD1XsgKgPtAAAA0A0AAADQAUaACABgBoAIAGAAo0AEADADQAQAMABRoAoAEAGsCI+OX7b7759qdfZfUAoAHsQ0Wnx7c/dqH68++/+eab73/2DjgVNIBxoqP8m+9/6Wp+/fFbVfV7G/loAHPn15++9e/9DT9/jwZQC3o65A4FAjNWuNMlHcQ/y1lU40yLHVIa7CmkBr/+9I9qa8zDwqABpNGjQf5mHxsNfv7eq9FWdCaY4HZ2+PWnb81WTwOz20CDAxpAlmB9LAaHmAYSfe+3++i/E8HdaRCocmbQAA5BznNaGVIaBPMlu4+q/8e4BY0GQzuABnACRgknrEXIBlMpZzTQIZ7ToCFYTpwVNICjcSc2oQZhjTsp2jcaaAHaP4YCDSDNL99HHxO5ge6GuKkI7/f71ga//vSj3ugskc2jpAGeERnQANLYWUp4s3cWysFDVRHozbPRthEx9dcvI0+KBjUBDSCLneg7BFMa50sA715uq378NRgx/AV026D83qDZLThjcdAAAA0A0AAADQAUaACABgBoAIAGAAo0AEADADQAQAMABRoAoAEAGgCgAYACDQDQAAANANAAQIEGAGgAUFaDPzz8UVYBTAE0AEADADQAQAMABRoAoAEAGgCgAYACDQCmosHT+urq6mq5eZMbAAqABgBT0QDgnKABwFAavN0vrpab3f3Czm1eN/qv9c7docWd/JjpkOGm3b3dtN79tmv3WNwzaYJTGFADE8dKgMViacPXBu7T2olgHdYi4n972yyDSmvIYvOq91CnsH8DHMWQGugY1eOADnpHA5/dTbgaTmngxL1uef3k7QJwCENqoKdAXbC6Gugod0EDGJAxaGAc6NYJjAYwMGPQQM6O0AAGZgwaeCGuHGBSBMMyBg1speVmZ56u2kWD+yDV0oQ+GkAhBtIAYMygAQAaAKABABoAKNAAAA0A0AAADQAUaACABgBoAIAGAAo0AEAD6Md2u5VVEwQNoBdoIEGDCkEDCRpUCBpI0KBC0ECCBhWCBhI0qJBAg/eH6+Xds1/X8PwhuemyoAH0ItAgBxrAPAk1aGL9+W65Wl0vNU2FZfUQ+enaS4IG0Iu8Bibcnz8sV4/vjAYwW7Ia2Jh/f1yhAcwZNJCgQYUcpUGzPGBtAPMi1GCKoAH0Ag0kaDAC2oSIA6WBQwMJGlwclR1CZk88L2ggQYNLo4aCXhkejs8RgQYSNLgwOtlur7kQGvQHDS5KlyZdoadGNoNWg0i/62cS8hKtaw4yCg0kaHBhgnv57sZ5qbOpty+1IW720S5rNaNBL9DgwuwJYpVG0U02F9kzVZ8GDSRocGFiQRyfF4nsiS2xFvKggQQNLowMYj3X71LrOqPBWTX48vHW4+7TyP7pRAgazAgRxDLWh5oUffl4u31pX71sJ2ACGswIEcT+S/NcqH1YFF8iu8mqDyOigeRFjQ6OGCMEDWZEeC/XT4eaVcGuGw003rKhnTt1h8RmTQH7NXj7dIcGMG/2avD1s7Lg4xdZPyrQAHqR10AvDG7vPn+VG0YGGkAvkhqYudDoF8cGNIBe5DUY+VyoBQ2gF2ggQYMKSWowKdAAepHUQH+XzGgAVYAGEjSokKQGkwINoBdoIEGDCkEDCRpUCBpI0KBC0ECCBhWCBhI0qBA0kKBBhWwLIdsdFjQAQAMANABAAwAFGgCgAQAaABTWAGCioAEAGgCgAQAaACjQAAANANAAAA0AFGgAgAYAaACABgAKNABAAwA0AEADAAUaABTVgP+ECRMFDQDQAAANANAAQIEGAGgAgAYAaACgQAMANAC4iAZv94urlpud3DwCbA8P79vT+qB39LpZXC02r6J2pw8O60/jbbO8Wj/JWsgzuAYqYkpdcnvVc5F3EkdrYMl3RoX74v5NVp+kwe7m6mq5CdtSaCcx4SiG1kBdv2SgnEA+8gYm05nMplPIaWA1Xhc7WQUMrEHhaDhDg31IdqZ4XOY1yPQEooxFA2/BEFxgddUtzeRBzbMjOJMBM9kwuFMO1Qc1Oekm9N1WtxvhBCbfyfS7a84ocXvoS2JXEbpBg23WPaQj0njhyefMGUgDL4A6muv0tHYupL7SXTCZUGij5G1z48ZfIvK0JG2b5uyNIW1s2TZjd9bYPD7XSUOuM5nJemSsaCS3RwXT/VifBaqHmZOCy0AaNCQCxce9xjpEMne1eINBlLi76b+drZEojGrgE5wi2RkdxLkZUaQD0hzZn9jZBYnOQIyRaOCM/obmGu+73tEGI5MQFWq2neghAhl2mmQnvR2CliNR7hPZAQ2GZQwamPDq4sC9xvuud7LB0hrkOuntE7Z8udEgMBnijEGD3DWOhIhHtMEwStzd4of4yC6FNcEp0i3LmJZE3qM85JCzC1gbHMEYNPAq1QX25ht6Mdq9FEtks3/giV5T+kvkdoER7YNAht2+Tkb2OaDecoIG+5ZMPCk6jjFo4D/9vNk5ExiDmZAYwkvrbnVCx3ui6gZZog8aG98ezbHpTuqgFHj9jEdt7JmvjfV9GoiuBpOf3HuEkIE1qJZB4zIyvEAWNBgKc+8fwITgSwbYCxoMiP1uWFYXRQ07OHAsaACABgBoAIAGAAo0AEADADQAQAMABRoAoAEAGkBPttutrJogaAC9QAMJGlQIGkjQoELQQIIGFYIGEjSoEDSQoEGFoIEEDSok0OD94Xp59+zXNTx/SG66LGgAvQg0yIEGME9CDZpYf75brlbXS01TYVk9ZH9pbHjQAHqR18CE+/OH5erxndEAZktWAxvz748rNIA5gwYSNKiQozRolgesDWBehBpMETSAXqCBBA0qBA0kaFAhaCBBgwpBAwkaVAgaSNBgophMarsuZ88Rvz6PBhI0mCgmf5SfKu7QZDloIEGDiSLzah6TjgQNJGgwUdAADeAcGug0vk6qzgNbuxRoAMU1EKms7dpjzBnZ0ADOoIFI+KmzgAbJm0cEGkBxDQLQAObNARrIOdIIQQPoRUYD/f3D2FcFBjSAXmQ0aNFL5ENnWRcBDaAXh2hg50Vi3Twm0AB6cZgGb5vlqJcHaAC9iGjwtA4WA4wGMGuiGqh1cRf0eihgbQAzJqJBa0LLiKdDBjSAXsQ1mBpoAL1AAwkaVAgaSNCgQtBAggYVggYSNKgQNJCgQYVsCyHbHRY0AEADADSAnlx8PlMENIBeoIEEDSoEDSRoUCFoIEGDCkEDCRpUCBpI0KBC0ECCBhUSaPD+cJ1MfkxeZJgngQY50ADmSaiBkx58tbrW6cDbCgvpwWFe5DUw4f78Ybl6fGc0gNmS1cDG/PvjCg1gzqCBBA0q5CgNmuUBawOYF6EGUwQNoBdoIEGDCkEDyRk0MAkV5c9fmpRyza9kDvFryW3GCkPwU7W98N/OxEADydk0ECESrTwf5pdonazxOpNXubOrt7NYHpGYflSggeRMGqzvvYx06sZ8s1GhWSwQc+hxQA5HxoQyY4L61dv1rmCDw4IGktM0MGkYd92sw405rcGT3scGvanRd+hGAy+Ro4qqxeZJ37BNc10CRnWUm49Rh3h3D7aTE4up907k4Nbbv53DxX3dzZUtjGrbCU5kxXCOjQ6J7iZjVLuHl9/SfpIW9xenRQLj5eat2XpI7ko0kJyugfOJ+6HZXDwT3K/6D3XZ8ho4L727bE4DkRR1d2PiVc9YYtHgHGtmTV2QeU2J23z7RoKtwkk79fI/iqYnole7tTmddy5/WeXkeI3I3/T2hFUKGkhO1yCZlLe9h5kI3m2W3cu0Bu4d1w39jAbBzdiQnqvkjnXuys44ZvD64EWkOFdw6q6pYFOD07i6X6zXzUt1IvsR+cOC/4HLa3EAaCA5pwbiNl9cA/dZkJyVHTQaxDWwA4XA7Y9zoH6ZGkY8o5xm/ahtP4rdjTpLG/1CoQA0KMd5NQgCuqwGlm7SbBoJQtzi1gf7+BpELVJkIzKrgVNj8N7+eqc+N90B+2GqbtimvI9XIq/FAUQ0+PLx1uPu01EtXoIJaeByNg0s3SCg9wnixovRjAbBu3NwJiotzuBzgAYW7y3v1leLzf3aVXRxs17E1xiSTG9TxDXYvrSvXrYTMKEqDfw97c24vW07R4VR7rZpDhSTmYQGwc4q+nXL8XDsepjR4HWzcD4xX2bTW+dA8cygmf45Lb9tlvulTRHRQPKiRgdHjBFSlwZtlJjI0E9pw7WBH0b7t2Y1UJiHNt3RapPsZ0Nbn9HAfRdtgw3BEBfzrZv7aaKf5GHs1+Dt0x0awLzZq8HXz8qCj19k/ahAA+hFXgO9MLi9+/xVbhgZaAC9SGpg5kKjXxwb0AB6kddg5HOhFjSAXqCBBA0qJKnBpEAD6EVSA/1dMqMBVAEaSNCgQpIaTAo0gF6ggQQNKgQNJGhQIWggQYMKQQMJGlQIGkjQoEK2hZDtDgsaAKABABpATy4+nykCGkAv0ECCBhWCBhI0qBA0kKBBhaCBBA0qBA0kaFAhaCBBgwoJNHh/uE4mPyYvMsyTQIMcaADzJNTASQ++Wl3rdOBthYX04DAv8hqYcH/+sFw9vjMawGzJamBj/v1xhQYwZ9BAggYVcpQGzfKAtQHMi1CDKYIG0As0kKDBJEnl3TkMNJCgwSRBAzQAT4Mg4dpe0ECCBpMEDdBg9Ng0m20qThujbipLL3eln3XTzY6cSgjdaSAydh40U0IDCRqcAZv7NRnEXhZXkft1t7b1B2rAaFACNDgDQdLlMFd0m0k6GcRosAc0GDmBBjpSA0wce8nPnZkSGuwBDUZOVIM9s3Y1TfJkGFYDnefGYQI5YdFg5AQayAVAmi6+B9dg+9K+0hnCx24CGoycUAMTxG6wvm2WOqZfNwtnLuTGurOMbqdVMQ0Od6whooHkRY0OjhgjBA1GTkQDhfvA1H8w6tA9TRLLhl1qNPBa3jP1MuzXQCdIRgOYM3s1+PpZWTDylJhoAL3Ia6AXBrd3n7/KDSMDDaAXSQ3MXGj0i2MDGkAv8hqMfC7UggbQCzSQoEGFJDWYFGgAvUhqoL9LZjSAKkADCRpUSFKDSYEG0As0kKBBhaCBBA0qBA0kaFAhaCBBgwpBAwkaVMi2ELLdYUEDADQAQAMANABQoAEAGgCgAUBhDQAmChoAoAEAGgCgAYACDQDQAAANANAAQIEGAGgAgAYAaACgQAMANABAAwA0AFCgAQAaAJTVgP+LDBMFDQDQAAANANAAQIEGAGgAgAYAaACgQAMANAC4iAZv94urlpud3DwCbA8P79vT+qB39LpZXC02r6J2pw8O60/jbbO8Wj/JWsgzuAYqYkpdcnvVc5F3EkdrYMl3RoX74v5NVp+kwe7m6mq5CdtSaCcx4SiG1kBdv2SgnEA+8gYm05nMplPIaWA1Xhc7WQUMrEHhaDhDg31IdqZ4XOY1yPQEooxFA2/BEFxgddUtzeRBzbMjOJMBM9kwuFMO1Qc1Oekm9N1WtxvhBCbfyfS7a84ocXvoS2JXEbpBg23WPaQj0njhyefMGUgDL4A6muv0tHYupL7SXTCZUGij5G1z48ZfIvK0JG2b5uyNIW1s2TZjd9bYPD7XSUOuM5nJemSsaCS3RwXT/VifBaqHmZOCy0AaNCQCxce9xjpEMne1eINBlLi76b+drZEojGrgE5wi2RkdxLkZUaQD0hzZn9jZBYnOQIyRaOCM/obmGu+73tEGI5MQFWq2neghAhl2mmQnvR2CliNR7hPZAQ2GZQwamPDq4sC9xvuud7LB0hrkOuntE7Z8udEgMBnijEGD3DWOhIhHtMEwStzd4of4yC6FNcEp0i3LmJZE3qM85JCzC1gbHMEYNPAq1QX25ht6Mdq9FEtks3/giV5T+kvkdoER7YNAht2+Tkb2OaDecoIG+5ZMPCk6jjFo4D/9vNk5ExiDmZAYwkvrbnVCx3ui6gZZog8aG98ezbHpTuqgFHj9jEdt7JmvjfV9GoiuBpOf3HuEkIE1qJZB4zIyvEAWNBgKc+8fwITgSwbYCxoMiP1uWFYXRQ07OHAsaACABgBoAIAGAAo0AEADADQAQAMABRoAoAEAGkBPttutrJogaAC9QAMJGlQIGkjQoELQQIIGFYIGEjSoEDSQoEGFoIEEDSok0OD94Xp59+zXNTx/SG66LGgAvQg0yIEGME9CDZpYf75brlbXS01TYVk9ZH9pbHjQAHqR18CE+/OH5erxndEAZktWAxvz748rNIA5gwYSNKiQozRolgesDWBehBpMETSAXqCBBA0qBA0kaFAhaCBBgwpBAwkaVAgaSNBgophMarsuZ88Rvz6PBhI0mCgmf5SfKu7QZDloIEGDiSLzah6TjgQNJGgwUc6ggc5f2iJTho4ONIDiGgQ5fP3M6iMEDaC8BhuRoFanPwyy1o4INIDiGgSgAYyfc2tg0qePOT8nGkAvDtDALJdZG8B82aeBWR+PeihAA+hLVoNpOIAG0Je0BpNxAA2gLwkNzHrg0HX2xUED6EVMgwmsiQVoAL2IaPDk/UMKh/GKgQbQi4gGEwQNoBdoIEGDCkEDCRpUCBpI0KBC0ECCBhWCBhI0qBA0kKBBhWwLIdsdFjQAQAMANICeXHw+UwQ0gF6ggQQNKgQNJGhQIWggQYMKQQMJGlQIGkjQoELQQIIGFRJo8P5wnUx+TF5kmCeBBjnQAOZJqIGTHny1utbpwNsKC+nBYV7kNTDh/vxhuXp8ZzSA2ZLVwMb8++MKDWDOoIEEDSrkKA2a5QFrA5gXoQZTBA2gF2ggQYMKQQPJGTSI/zCySWd9dWN+ElP/gPiZU46atEXdj3EW/bFy/+1MDDSQnE0DESLRyvMR5DPVCe3KnV29ncXyiMT0owINJGfSYH3vZaRTN+abjQrNYoGYQ48DcjgyJpQZE9TvP693BRscFjSQnKaBScO462YdbsxpDZ70PjboTY2+QzcaeIkcVVQtNk/6hm2a6/KQqqPctKQ6xLt7sJ2cWEy9dyIHt97+7Rwu7utuynhhVNtOcCIrhnNsdEh0Nxmj2j28/Jb2k7S4v73uzCftIc3WQ1K4ooHkdA2cT9wPzebimeB+1X+oy5bXwHnp3WVzGoikqLsbE696xhKLBudYmd3Ia0rc5ts3EmwVTtqpl/9RND0Rvdqtzem8c/nLKifHa0T+prcnrFLQQHK6BsmkvO09zETwbrPsXqY1cO+4buhnNAhuxob0XCV3rHNXdsYxg9cHLyLFuYJTd00FmxqcxtX9Yr1uXqoT2Y/IHxb8D1xeiwNAA8k5NRC3+eIauM+C5KzsoNEgroEdKARuf5wD9cvUMOIZ5TTrR237Uexu1Fna6BcKBRTV4MvHW4+7T0e1eAmmo0EQ0GU1sHSTZtNIEOIWtz7Yx9cgapEiG5FZDZwag/f21zv1uekO2A9TdcM25X28EnktDiCuwfalffWynYAJE9LA5WwaWLpBQO8TxI0XoxkNgnfn4ExUWpzB5wANLN5b3q2vFpv7tavo4ma9iK8xJJnepohoIHlRo4MjxgipSgN/T3szbm/bzlFhlLttmgPFZCahQbCzin7dcjwcux5mNHjdLJxPzJfZ9NY5UDwzaKZ/Tstvm+V+aVPs1+Dt0x0a7EV+9OfUoI0SExn6KW24NvDDaP/WrAYK89CmO1ptkv1saOszGrjvom2wIRjiYr51cz9N9JM8jL0afP2sLPj4RdaPistrAJMmr4FeGNzeff4qN4wMNIBeJDUwc6HRL44NaAC9yGsw8rlQCxpAL9BAggYVktRgUqAB9CKpgf4umdEAqgANJGhQIUkNJgUaQC/QQIIGFYIGEjSoEDSQoEGFoIEEDSoEDSRoUCFoIEGDCtkWQrY7LGgAgAYAaAA9ufh8pghoAL1AAwkaVAgaSNCgQtBAggYVggYSNKgQNJCgQYWggQQNKiTQ4P3hOpn8mLzIME8CDXKgAcyTUAMnPfhqda3TgbcVFtKDw7zIa2DC/fnDcvX4zmgAsyWrgY3598cVGsCcQQMJGlTIURo0ywPWBjAvQg2mCBpAL9BAggaTJJV35zDQQIIGkwQN0AA8DYKEa3tBAwkaTBI0QIPRY9Nstqk4bYy6qSy93JV+1k03O3IqIXSngcjYedBMCQ0kaHAGbO7XZBB7WVxF7tfd2tYfqAGjQQnQ4AwESZfDXNFtJulkEKPBHtBg5AQa6EgNMHHsJT93ZkrDaqDz3DhMICcsGoycqAZ7Zu1qmuTJMLgG25f2lc4QPnYT0GDkBBrIBUCaLr6H1UDyokYHR4wRggYjJ9TABLEbrG+bpY7p183CmQu5se4so9tpVUyDwx1r2K+BTpCMBtCHiAYK94Gp/2DUoXuaJJYNu9Ro4LW8Z+pl2KvB18/KgpGnxEQD6EVeA70wuL37/FVuGBloAL1IamDmQqNfHBvQAHqR12Dkc6EWNIBeoIEEDSokqcGkQAPoRVID/V0yowFUARpI0KBCkhpMCjSAXqCBBA0qBA0kaFAhaCBBgwpBAwkaVAgaSNCgQtBAggYVsi2EbHdY0AAADQDQAAANABRoAIAGAGgAUFgDgImCBgBoAIAGAGgAoEADADQAQAMANABQoAEAGgCgAQAaACjQAAANANAAAA0AFGgAgAYAZTXg/yLDREEDADQAQAMANABQoAEAGgCgAQAaACjQAOASGrzdL65abnZy8wiwPTy8b0/rg97R62Zxtdi8itqdPjisP423zfJq/SRrIc/gGqiIKXXJ7VXPRd5JHK2BJd8ZFe6L+zdZfZIGu5urq+UmbEuhncSEoxhaA3X9koFyAvnIG5hMZzKbTiGngdV4XexkFTCwBoWj4QwN9iHZmeJxmdcg0xOIMhYNvAVDcIHVVbc0kwc1z47gTAbMZMPgTjlUH9TkpJvQd1vdboQTmHwn0++uOaPE7aEviV1F6AYNtln3kI5I44UnnzNnIA28AOportPT2rmQ+kp3wWRCoY2St82NG3+JyNOStG2aszeGtLFl24zdWWPz+FwnDbnOZCbrkbGikdweFUz3Y30WqB5mTgouA2nQkAgUH/ca6xDJ3NXiDQZR4u6m/3a2RqIwqoFPcIpkZ3QQ52ZEkQ5Ic2R/YmcXJDoDMUaigTP6G5prvO96RxuMTEJUqNl2oocIZNhpkp30dghajkS5T2QHNBiWMWhgwquLA/ca77veyQZLa5DrpLdP2PLlRoPAZIgzBg1y1zgSIh7RBsMocXeLH+IjuxTWBKdItyxjWhJ5j/KQQ84uYG1wBGPQwKtUF9ibb+jFaPdSLJHN/oEnek3pL5HbBUa0DwIZdvs6GdnngHrLCRrsWzLxpOg4xqCB//TzZudMYAxmQmIIL6271Qkd74mqG2SJPmhsfHs0x6Y7qYNS4PUzHrWxZ7421vdpILoaTH5y7xFCBtagWgaNy8jwAlnQYCjMvX8AE4IvGWAvaDAg9rthWV0UNezgwLGgAQAaAKABABoAKNAAAA0A0AAADQAUaACABgBoAIAG0JftdiurJggaQC/QQIIGFYIGEjSoEDSQoEGFoIEEDSoEDSRoUCFoIEGDCgk0eH+4Xt49+3UNzx+Smy4LGkAvAg1yoAHMk1CDJtaf75ar1fVS01RYVg/ZH9wbHjSAXuQ1MOH+/GG5enxnNIDZktXAxvz74woNYM6ggQQNKuQoDZrlAWsDmBehBlMEDaAXaCBBgwpBAwkaVAgaSNCgQtBAggYTxWRS23U5e4749Xk0kKDBRDH5o/xUcYcmy0EDCRpMFJlX85h0JGggQYOJggZoAGfUIEhqOlLQAM6mgcl6iAYwCcproLNxWtAAJkF5DSw6GzQawOxBAwkaVAgaSNCgQtBAggYVggYSNKgQNJCgQYWggQQNKgQNJGhQIXEN3K/PGtZPcq/xgAbQi7gGUwMNoBdoIEGDCkEDCRpUCBpI0KBC0ECCBhWCBhI0qBA0kKBBhWwLIdsdFjQAQAMANICeXHw+UwQ0gF6ggQQNKgQNJGhQIWggQYMKQQMJGlQIGkjQoELQQIIGFRJo8P5wnUx+TF5kmCeBBjnQAOZJqIGTHny1utbpwNsKC+nBYV7kNTDh/vxhuXp8ZzSA2ZLVwMb8++MKDWDOoIEEDSrkKA2a5QFrA5gXoQZTBA2gF2ggOYMGO/0jgDIBkUlnfXVjMlgP8UOZOmP2uX6H0H87EwMNJGfTQIRItPJ8aM3crPEmwWOxs6u3s1gekZh+VKCB5EwarO+9jHTqxnyzUaFZLBBz6HFADkfGhDJjgvrV2/WuYIPDggaS0zQwaRh33azDjTmtwZPexwa9qdF36EYDL5GjiqrF5knfsE1z9+10SR3lvDQh3t2D7eTEYuq9Ezm49fZv53BxX2+GL4Uwqm0nOJEVwzk2OiS6m4xR7R5efkv7SVoSCVvtIc1W97NKgQaS0zVwPnE/NJuLZ4L7Vf+hLlteA+eld5fNaSCSou5uTLzqGUssGpxjzaypCzKvKXGbb99IsFU4aade/kfR9ET0arc2p/PO5S+rnByvEfmb3p6wSkEDyekauAtcLylvew8zEbzbLLuXaQ3cO64b+hkNgpuxIT1XyR3r3JWdcczg9cGLSHGu4NRdU8GmBqdxdb9Yr5uX6kT2I/KHBf8Dl9fiANBAck4NxG2+uAbusyA5KztoNIhrYAcKgdsf50D9MjWMeEY5zfpR234Uuxt1ljb6hUIBaFCO82oQBHRZDSzdpNk0EoS4xa0P9vE1iFqkyEZkVgOnxuC9/fVOfW66A/bDVN2wTXkfr0ReiwOIaPDl463H3aejWrwEE9LA5WwaWLpBQO8TxI0XoxkNgnfn4ExUWpzB5wANLN5b3q2vFpv7tavo4ma9iK8xJJnepohrsH1pX71sJ2BCVRr4e9qbcXvbdo4Ko9xt0xwoJjMJDYKdVfTrluPh2PUwo8HrZuF8Yr7MprfOgeKZQTP9c1p+2yz3S5siooHkRY0OjhgjpC4N2igxkaGf0oZrAz+M9m/NaqAwD226o9Um2c+Gtj6jgfsu2gYbgiEu5ls399NEP8nD2K/B26c7NIB5s1eDr5+VBR+/yPpRgQbQi7wGemFwe/f5q9wwMtAAepHUwMyFRr84NqAB9CKvwcjnQi1oAL1AAwkaVEhSg0mBBtCLpAb6u2RGA6gCNJCgQYUkNZgUaAC9QAMJGlQIGkjQoELQQIIGFYIGEjSoEDSQoEGFoIEEDSpkWwjZ7rCgAQAaAKAB9OTi85kioAH0Ag0kaFAhaCBBgwpBAwkaVAgaSNCgQtBAggYVggYSNKiQQIP3h+tk8mPyIsM8CTTIgQYwT0INnPTgq9W1TgfeVlhIDw7zIq+BCffnD8vV4zujAcyWrAY25t8fV2gAcwYNJGhQIUdp0CwPWBvAvAg1mCJoUD2pvDuHgQYSNJgkaIAG4GkQJFzbCxpI0GCSoAEajB6bZrNNxWlj1E1l6eWu9LNuutmRUwmhOw1Exs6DZkpoIEGDM2BzvyaD2MviKnK/7ta2/kANGA1KgAZnIEi6HOaKbjNJJ4MYDfaABiMn0EBHaoCJYy/5uTNTQoM9oMHIiWqwZ9aupkmeDMNqoPPcOEwgJywajJxAA7kASNPF9+AabF/aVzpD+NhNQIORE2pggtgN1rfNUsf062bhzIXcWHeW0e20KqbB4Y41RDSQvKjRwRFjhKDByIlooHAfmPoPRh26p0li2bBLjQZey3umXob9GugEyWgAc2avBl8/KwtGnhITDaAXeQ30wuD27vNXuWFkoAH0IqmBmQuNfnFsQAPoRV6Dkc+FWtAAeoEGEjSokKQGkwINoBdJDfR3yYwGUAVoIEGDCklqMCnQAHqBBhI0qBA0kKBBhaCBBA0qBA0kaFAhaCBBgwpBAwkaVMi2ELLdYUEDADQAQAMANABQoAEAGgCgAUBhDQAmChoAoAEAGgCgAYACDQDQAAANANAAQIEGAGgAgAYAaACgQAMANABAAwA0AFCgAQAaAJTV4A8Pf3z9698olOJFhlpp0IAygSJDrTRoQJlAkaFWGjSgTKDIUCsNGlAmUGSolQYNKBMoMtRKgwaUCRQZaqVBA8oEigy10qABZQJFhlpp0IAygSJDrTQX0OD5X//hquX6T+EOFy+2h4f37fF3B72jl3//u6t/+OFF1P9ppQ4L608rf/nh769Wj2H9tIsMtdIMroGKmFKX3F71XOSdVI7WwJZ8Z1S4/92//iVaf+xn8tP11dXf//tzUK+KdnJmJshQK83QGqjrlwyUE0o+8gYumc5kNp1SchpYjX/3U1A/3SJDrTQDa1A4Gs7QYJ+S7EzxuMxrkOnJRIsMtdKMRQNvwRBcYHXVLc3kQc2zIziTATPZMLhTDtUHNTnpJvTdVrcb4QQm38n0u2vOKOvdHvqS2FWEbtBgm3UP6Yg0XnjyeeEiQ600A2ngBVBHc50ef+dcSH2lu2AyodBGyV9+uHbjLxF5WpK2TXP2xpA2tmybsTtrbB6f66TTsqy0nclM1iNjRSO5PSqY7sf6LIrqYeak0yoy1EozkAZNSQSKX9xrrEMkc1eLNxhEibub/tvZGonCqAZ+CU6R7IwO4tyMKNIBaY7sT+zsoiQ6M80iQ600I9HAGf0NzTXed72jDUYmISrUbDvRQ0SRYdc2G+2kt0PQciTK9+6ABn6RoVaaMWhgwquLA/ca77veyQZLa5DrpLdP2PLlRoPA5KkWGWqlGYMGuWscCZH9DYZR4u4WP8QvskthTXCKdMsypmWJvEd5yCFnF4W1wRGMQQOvUl1gb76hF6PdS7FENvsHnug1pb9EbhcY0T6IIsNuXycj+xxQb8sJGuxbMvGk6DjGoIH/9PP6T84ExjnKEl5ad6sTOt4TVTfIEn3Qxca3R3NsupM6KAVeP+NRG3vma2N9nwaiq8HkJ/cep1hkqJVmYA2qLYPGZWR4mXiRoVYaNBiqmHv/ACYEXzLMoMhQKw0aDFjsd8NBfcmihp2ZOYAGFIoqMtRKgwaUCRQZaqVBA8oEigy10qABZQJFhlpp0IAygSJDrTRoQJlAkaFWGjSgTKDIUCsNGlAmUGSolQYNKBMoMtRKgwaUCRQZaqVBA8oEigy10qABpVfZbrdhZfEiQ600aEDpVdBAggYVFjSQoEGFBQ0kaFBhQQMJGlRY0ECCBhWWQIP//Y/vlv/8Z7mbKZ9+n9yULzLUSoMGlF4l0CBX0IAyzxJq0MT6//nn5Xf/9N1S88Onv/7t9c8/mBfL5Xf/8f9kO/kiQ600aEDpVfIamHD/9PvlP/3X/zIaUGZbshroQeCvf3v5r+/QgDLnggYSNKiwHKVBszxgbUCZVwk1OEeRoVYaNKD0KmggQYMKCxpI0KDCggYSNKiwoIEEDSosaCBBg4kWk0ntpy5nzxG/Po8GEjSYaDH5o/xUcYcmy0EDCRpMtMi8msekI0EDCRpMtKABGlBKa/Dff7j1+Lcf/0cedWyRoVYaNKCcQYP//KV9+ef/LGCCDLXSoAGltAay/HJ/e+uKcUKRoVYaNKCcWYP/+eO/oAFl3mWvBv/34d9ub2/v/1vWH1VkqJUGDSi9Sl4DvTC4/ZcH/Z8NehQZaqVBA0qvktTAzIV6L45NkaFWGjSg9Cp5DXrOhdoiQ600aEDpVdBAggYVlqQGRYsMtdKgAaVXSWqgv0tmNKBUUdBAggYVlqQGRYsMtdKgAaVXQQMJGlRY0ECCBhUWNJCgQYUFDSRoUGFBAwkaVFjQQIIGFZZtIcKW3SJDrTRoQJlAkaFWGjSgTKDIUCsNGlAmUGSolQYNKBMoMtRKgwaUCRQZaqVBA8oEigy10qABZQJFhlppSmoAMFHQAAANANAAAA0AFGgAgAYAaACABgAKNABAAwA0AEADAAUaAKABABoA/Pbbb/8fmJCB/oVS7i0AAAAASUVORK5CYII=;" vertex="1" parent="1">
          <mxGeometry x="330" y="30" width="258" height="842" as="geometry" />
        </mxCell>
        <mxCell id="9s_bkhRJLRccFdzS-PqJ-7" value="" style="group" vertex="1" connectable="0" parent="1">
          <mxGeometry x="230" y="670" width="124" height="150" as="geometry" />
        </mxCell>
        <mxCell id="9s_bkhRJLRccFdzS-PqJ-4" value="Returns 1" style="text;html=1;align=center;verticalAlign=middle;whiteSpace=wrap;rounded=0;fontSize=14;" vertex="1" parent="9s_bkhRJLRccFdzS-PqJ-7">
          <mxGeometry y="60" width="80" height="30" as="geometry" />
        </mxCell>
        <mxCell id="9s_bkhRJLRccFdzS-PqJ-6" value="" style="curved=1;endArrow=classic;html=1;rounded=0;" edge="1" parent="9s_bkhRJLRccFdzS-PqJ-7">
          <mxGeometry width="50" height="50" relative="1" as="geometry">
            <mxPoint x="124" y="150" as="sourcePoint" />
            <mxPoint x="124" as="targetPoint" />
            <Array as="points">
              <mxPoint x="40" y="70" />
            </Array>
          </mxGeometry>
        </mxCell>
        <mxCell id="9s_bkhRJLRccFdzS-PqJ-8" value="" style="group" vertex="1" connectable="0" parent="1">
          <mxGeometry x="230" y="475" width="124" height="150" as="geometry" />
        </mxCell>
        <mxCell id="9s_bkhRJLRccFdzS-PqJ-9" value="Returns 1" style="text;html=1;align=center;verticalAlign=middle;whiteSpace=wrap;rounded=0;fontSize=14;" vertex="1" parent="9s_bkhRJLRccFdzS-PqJ-8">
          <mxGeometry y="60" width="80" height="30" as="geometry" />
        </mxCell>
        <mxCell id="9s_bkhRJLRccFdzS-PqJ-10" value="" style="curved=1;endArrow=classic;html=1;rounded=0;" edge="1" parent="9s_bkhRJLRccFdzS-PqJ-8">
          <mxGeometry width="50" height="50" relative="1" as="geometry">
            <mxPoint x="124" y="150" as="sourcePoint" />
            <mxPoint x="124" as="targetPoint" />
            <Array as="points">
              <mxPoint x="40" y="70" />
            </Array>
          </mxGeometry>
        </mxCell>
        <mxCell id="9s_bkhRJLRccFdzS-PqJ-11" value="" style="group" vertex="1" connectable="0" parent="1">
          <mxGeometry x="230" y="290" width="124" height="150" as="geometry" />
        </mxCell>
        <mxCell id="9s_bkhRJLRccFdzS-PqJ-12" value="Returns 2" style="text;html=1;align=center;verticalAlign=middle;whiteSpace=wrap;rounded=0;fontSize=14;" vertex="1" parent="9s_bkhRJLRccFdzS-PqJ-11">
          <mxGeometry y="60" width="80" height="30" as="geometry" />
        </mxCell>
        <mxCell id="9s_bkhRJLRccFdzS-PqJ-13" value="" style="curved=1;endArrow=classic;html=1;rounded=0;" edge="1" parent="9s_bkhRJLRccFdzS-PqJ-11">
          <mxGeometry width="50" height="50" relative="1" as="geometry">
            <mxPoint x="124" y="150" as="sourcePoint" />
            <mxPoint x="124" as="targetPoint" />
            <Array as="points">
              <mxPoint x="40" y="70" />
            </Array>
          </mxGeometry>
        </mxCell>
        <mxCell id="9s_bkhRJLRccFdzS-PqJ-14" value="" style="group" vertex="1" connectable="0" parent="1">
          <mxGeometry x="230" y="110" width="124" height="150" as="geometry" />
        </mxCell>
        <mxCell id="9s_bkhRJLRccFdzS-PqJ-15" value="Returns 6" style="text;html=1;align=center;verticalAlign=middle;whiteSpace=wrap;rounded=0;fontSize=14;" vertex="1" parent="9s_bkhRJLRccFdzS-PqJ-14">
          <mxGeometry y="60" width="80" height="30" as="geometry" />
        </mxCell>
        <mxCell id="9s_bkhRJLRccFdzS-PqJ-16" value="" style="curved=1;endArrow=classic;html=1;rounded=0;" edge="1" parent="9s_bkhRJLRccFdzS-PqJ-14">
          <mxGeometry width="50" height="50" relative="1" as="geometry">
            <mxPoint x="124" y="150" as="sourcePoint" />
            <mxPoint x="124" as="targetPoint" />
            <Array as="points">
              <mxPoint x="40" y="70" />
            </Array>
          </mxGeometry>
        </mxCell>
        <mxCell id="9s_bkhRJLRccFdzS-PqJ-21" value="" style="shape=image;verticalLabelPosition=bottom;labelBackgroundColor=default;verticalAlign=top;aspect=fixed;imageAspect=0;image=data:image/png,iVBORw0KGgoAAAANSUhEUgAAANYAAABiCAIAAACj2roaAAAAAXNSR0IArs4c6QAAAARnQU1BAACxjwv8YQUAAAAJcEhZcwAADsMAAA7DAcdvqGQAAAASdEVYdFNvZnR3YXJlAEdyZWVuc2hvdF5VCAUAAAUNSURBVHhe7Z0xb9s6FEb997q0k/9HB6PIlj/QpTA6d+jymil4CDpkCLp1K5DljUGBjpkzvwdeSTb18Yq2FJqE/c6HMzS0RF2Tx6LsAtLqX0KaZqUNhNQNCpLGQUHSOChIGgcFSeOgIGkcR8G//v7+5/kFoDiqmgUFoR6qmgUFoR6qmgUFoR6qmgUFoR6qmgUFoR6qmgUFoR6qmgUFoR6qmgUFoR6qmgUFoR6qmmW5gr8+v1vtcvWQbtCcvsLja7u7PuodPX55s3q3fZT2hw9ht7R9GU/bt6sPd2n7eaOqWZYqGGar1HD3I56b9UXMVrAnX0xQ7c3nJ7d97pjcXq1Wb7/8StoD9nm4MAtVNctCBcPYTU7SAvKzXplMMZmXlpBTsP8IXd8m7eeLqmZZpmDhmThBh69hspjiTuQVzFRypqhqlsIKji4Qk8ENI95nWLDCdZWTaAHqFrgu8TIXaggL4v4Cbv9qXEa6aOaLnH53wxG1Pa5wLGh/1Wgddum7jXfZx+m88AVPY1Q1yzwFR5O3zzBGd9fRINoo7yeym4bdDD1tr+K5n5h1E3TXZ3f0wc7dvPZ9emcU77otV2TUszb2xWQuzpxz5PAB6/dKLu+8moVQYeag54WqZpmn4MDEJI2Jx9emJ/Np9jtMZijezP4dveoY4Co4JjnEZDEmUG4VdgpQa7Ue7+jCRDHniapmKatgtOJ0Gcb30Fi7HToLX5jmvh93F0GnfNetW+Rog6Rnx7CDG6DgGFXNUlDBbmr3cxCP76GxnuywtIK5IkfbpD23Owsmn6JzRVWzFFQwN77O9BzuMJ2heDN/lzFaUtqSHGK6Z/VJcd6j7nLM0QWuBX3cSRo1hsEdrXF24b//U76OdNsnjtr1+/jryO6C0q1B0Ck/VKSzzRHtPQsUPHSJzDfiSSYmI/6F5eohWjSjvfqkwxq/Gk3b6FebeIInajB6t0YZ9p0u0oSQjOr0jfF+V+o9O6SglJosuLn3eI6oapZlCv5vqeqEc1o9c1Q1CwrOpDvnVbAw+RHxAlDVLCg4n/7/PJL2koTT7YX5h4LQHlXNgoJQD1XNgoJQD1XNgoJQD1XNgoJQD1XNgoJQD1XNgoJQD1XNgoJQD1XNgoJQD1XNgoJQD1XNgoJQD1XNgoIQuLm5SRuLo6pZUBACKAiNQUFoDApCY1AQGoOC0JhEwd9fN+uPP3SzjvtPky/lUdUsKAiBRMEcKAjlSRUcPPv5cb15v1lbtvfPL39+bLs/1uvN13+0nzyqmgUFIZBXsFPt/tP6/bffnAXhJGQVtJPf88vjtw0KwqlAQWjMLAWHy0GuBaEcqYKnQFWzoCAEUBAag4LQGBSExqAgNAYFoQDdnatv9/eKnXEHOhSEAnT3DB7fmvvYm7SiIBRA798/51acKAgFQEFozCkUHD+F4NhlfQpVzYKCl0NxBeUhF/6zYeagqllQ8HIorWD6lJS0ZR6qmgUFL4fCCjpPnbDHrujDqmagqllQEAKpgu6jpl65FqtqFhSEAApCY1AQGoOC0JhUQb6OQFUcBZ2fYNKWeahqFhSEgKegrsWvXIVREHK4Cup/0L1iCe5Q1SwoCIEpBcuiqllQEAIoCI1BQWgMCkJjUBAag4LQGBSExtwUStpzjKpmQUGoh6pmQUGoh6pmQUGoh6pmQUGoh6pmQUGoh6pmQUGoh6pmQUGoh6pmcRQkpGZQkDQOCpLGQUHSOChIGuc/Mhv6kzHl/54AAAAASUVORK5CYII=;" vertex="1" parent="1">
          <mxGeometry x="352" y="770" width="209" height="98" as="geometry" />
        </mxCell>
        <mxCell id="9s_bkhRJLRccFdzS-PqJ-22" value="" style="shape=image;verticalLabelPosition=bottom;labelBackgroundColor=default;verticalAlign=top;aspect=fixed;imageAspect=0;image=data:image/png,iVBORw0KGgoAAAANSUhEUgAAANAAAAC6CAIAAABQqVQfAAAAAXNSR0IArs4c6QAAAARnQU1BAACxjwv8YQUAAAAJcEhZcwAADsMAAA7DAcdvqGQAAAASdEVYdFNvZnR3YXJlAEdyZWVuc2hvdF5VCAUAAAjQSURBVHhe7Z09b9s4GID997IkU/5HhyDw5j/QpTAyZ+hyzRQcghs6GN1uK5DlxqJAx86d78APSS9fUrQk029O7vPiGWJKoijyEUk7ALn5lyAMY6MTCOKcgXCEaSAcYRoIR5hGItwff/714+cvgOYgHJiCcGAKwoEpCAemIByYgnBgCsKBKQgHpiAcmHKScF8fbjZ9bA/5CW9OLOH0sr3sJj3R6+PV5mb/qtIP9+6yPH0Z3/bXm/uXPH3dnCCca5tWlRvrt9bGi5gtXKReGCfW1cO3YvrcOnnebjbXj1+zdIe3/8KcWy6cq6nRJllAvY2NqRSmcmgJNeHiC7N7ztLXy2LhGtf7GTI8hdHCNDegLlylJCulvXDJxC6rSle/Mbqhx82HCiGGkjBUhZADliuDG9qGiddwVBYjH/7qhRx/uu6OOl2WMNUxzvZ8hiFitvKSIQqZN566vDGzhUuaaoiuRl52osp8nQ7NFiq9b49v+61s6ZE29jr2eYa7dy72rRjzLPUWpflWrZAiZ50YC1OZVBX6v+51ildl07JSmRWuhJWbrovZwnWMNEmKrE3fGJU3tZxh1h7yNP+3OFpo76JwKdktRgvjdamNp4UCaEd1eUp3V4wUZp00F06MHSG62jxWs8UMC0OYa9SYT/EShW7gPttiIZMTspwLPh09AeFS2goXGnKocVmbx2p2NMPWwtUKmZyT5/x2PVz2zqyVtsLVarPQGMczzNtDnla+JEUXKU/JbjGes7ZHU3hGfcmUuyuYwzmKTZIkuqpMRis/PR8+qi8N4fzMSD/LTr809BPBYhkUuoGPFbJwzoT0yALhjk1tf/tvqR0jVS9/49gexPAnroqRV6I8Khop+d1ENudIGTzRpCS6a8cL6ZtfRVLOsh+lX3aiVceEU0XNhs7aM66RxcL9tpgaUOgyVw7CzSf0ZwbOZT/aXQAIt4j4/4MsvSWuK70w2xAOrEE4MAXhwBSEA1MQDkxBODAF4cAUhANTEA5MQTgwBeHAFISDyNPTU57YHISDCMKBKQgHpiAcmIJwYArCgSkIB6Zkwn3/eHf7/os+LfD5w+ihOggHkUy4GggHp5IL11n19/vbu3d3tz72n3/++vFlHz7c3t59/EfnUwfhIFIXLoj1+cPtu0/f6eGgAVXhfMf289frpzuEgzYgHJgyS7huGsccDpaSC3cOEA4iCAemIByYgnBgCsLBbMKKwc/DOp4z1hRDOJhNWL01XRJ56gKaCAez0Wuiz1k4EeFgNggHppxPuGxB+oUg3EVxLuHCOtoIB4r2wsk92REOFO2Fi/jdKRAOGoJwYArCgSkIB6YgHJiCcGAKwoEpCAemlIWTP/x2ccoehwgHkbJwrUE4iCAcmIJwYArCgSkIB6YgHJiCcGDKU6PIc5YgHJiCcGAKwkHk6GjYBISDCMKBKQgHpiAcmIJwYArCgSkIB6ZkwrG5G5yTTLgaCAenkgvH5m5wRurCsbkbNKYqnN76COHgVBAOTJklHJu7wankwp0DhIPIhQl3uHeLBOjlP8NGFpvtwX9stoBFBb9XRptVC3LSx1kZFymcaoxi4vnwQsudWcLi3M3u7h7n6nrG5i//Ky5QuPuHZI1j19lsH50EzZq8hu/bdBcbnGvTz7l1X3bPDTO0ZX3CVXcW88K9+HOiXiHF9zqdcMki3K79bvYvvhPy0W8hFfoq8VFvKhWHthghPbmRQKbHv8Xlqq/qumQXyt0+n+xGUUFxbbGbl4eCu9056drksSbj5SPL2sdLuqOyrsZYp3CjO4t11RQ0evV/uAqqCyc+Jj1HTTi1dPzzNpjhx7tSvYtrw5g7NGeSleq6+gfJjuot1cLAnVZFVxJVqsN9uF1yr3T6K1bCL7xmXWkXzCbXKZyc8iebBPTvZXDlsL8ePo4LJ3sRKVlFuKyDGQpTHulq14qeRvTNgaQMSdure2W3HrLKDhUyd2/m7r77KLYgSru6tMJ1W0zgUoVTXVdz4eT3UD2mT+rhysLFzk+FLI+40H8c6xoTd0W2qR99VTxv3V16z5SsWSBcLlymTlvhIsPkJmSSySSyTZp/XLiir45q21eFEykhksffPbt68wWIlemKEbNKqlej22ICdeFEz3oSbyKc5GzCRYaOzZ+TtVBiQ0W47OkEpcYQHeoE4SLJIx/uNzf7h518Ga62u6vyXFBTKe0YNeHCGzUzwyIrFS49M3YwfVckrsp9knmGC9VQOCJcdrLzzOdcbvihhBXhXh+vRI2lr00orbhQfYvqJg8i52/76+Ovxxhl4YaBYnaGRdYqXN8eoSL8bzH5HM6Fumn1aFU4R/jC2Ic/pMspr/XpFeHkU/QZdmTddslsKYR4H3RbTKAsXMSXc2aGRVoKB6sG4cAUhANTEA5MQTgwBeHAFIQDUxAOTCkLp37n81H6PXUqCAeRsnCtQTiIIByYgnBgCsKBKQgHpiAcmIJwYIrepG1p5DlLEA5MQTgwBeEgcnQ0bALCQQThwBSEA1MQDkxBODAF4cAUhANTMuHY3A3OSSZcDYSDU8mFY3M3OCN14djcDRpTFU5vfYRwcCoIB6bMEo7N3eBUcuHOAcJdEGNrcU4D4WAmCAemSOGyhYWPgnAwE4QDQVwivV9GPdowui59umK63K1hbIOKQTi12vqkcRbhLoy4Qv6oLsla92qF/G7Tt6nC0cNBvglEvndFv7PFqC4IB1PJhIsb6KgIxogNQ5JxFuFgKkXhjsyu3CCbaPdmwpX2E1sCwpmRCacnauMMJr2RcKEzRrhVkQs3vjvb+KZv47vaqR9+J9vcURZu9Ev0QhDOjIJwjvLubGIO50Ju8ZZM7+Sudvo/DUPORwbuQFm4iL8pwkFDEA5MQTgwBeHAFIQDUxAOTEE4MAXhwJSycOpnQh+z/oGhQDiIlIVrDcJBBOHAFIQDUxAOTEE4MAXhwBSEA1P0Jm1LI89ZgnBgCsKBKQgHpiAcmIJwYArCgSkIB6aUhSOIcwfCEaaBcIRpIBxhGghHmMZ/+ZQepaleTPoAAAAASUVORK5CYII=;" vertex="1" parent="1">
          <mxGeometry x="354" y="570" width="208" height="186" as="geometry" />
        </mxCell>
        <mxCell id="9s_bkhRJLRccFdzS-PqJ-24" value="" style="shape=image;verticalLabelPosition=bottom;labelBackgroundColor=default;verticalAlign=top;aspect=fixed;imageAspect=0;image=data:image/png,iVBORw0KGgoAAAANSUhEUgAAANEAAAC8CAIAAABpMtw8AAAAAXNSR0IArs4c6QAAAARnQU1BAACxjwv8YQUAAAAJcEhZcwAADsMAAA7DAcdvqGQAAAASdEVYdFNvZnR3YXJlAEdyZWVuc2hvdF5VCAUAAAnYSURBVHhe7Z29buQ4Fkbr9Zy4I7/HBIbhzC8wyaDQcQeT7HRkLIwJOjAmm2wAJxs2Bpiw4453IZKSPv6WVKZub5XOxQlc+qEo8oikZIA8/JcgbOOQbiCIjQPnCOvAOcI6cI6wjsi5f/3793++fQfojmqGc2CBaoZzYIFqhnNggWqGc2CBaoZzYIFqhnNggWqGc2CBaoZzYIFqhnNggWqGc2CBanaOc399/HCY4vE1P+CHE3K4PG8vT4vu6O3TzeHD8S3Z/vownJZvP4+vx9vDw0u+/bJRzdY7N1RPr/INRdyq5rNY7VygnZnBrZuPX4vb15bJ8+PhcPvpr2z7gHsArkw71Wy1c0NhVWvlDNrVbEwjM41d59ByLjwzT8/Z9stFNVvrXOei3yDB91DNTHcJ2s41cnKhqGbdnIsGeVlpDkUcYuyDhrFRIaRP8X2WD+25hjwMfdw8CJv3ajbyfrCdyfrdjVdMt2sOYyPDyM8l6CMkq6fMUUi88xjmB6OaLXUuqq05xkJ5eZJSc8U615wv96lKvh4ftbIr1eyMnNL0Vx91nCoypFlqM0pjr1YmJeV0Y8hMY4BVaAXHJyqclQ3RSnlOGHLYuOhloZotdW6kUisxWqCuPhrPaznBrEr0MPe37C1UedG5mOwS1cw4Y1odayEDqaZpfkpXT6hk5jJRzXo5J52Ij7FATxVuMcFCXzbUa0ineEpCWsdTssVMRgdkKReUOnkAzsWoZl2c83U5F7oW6KnCrSbY27lWJqNj8pR/XDuXPTaXimrWxblWgRbq43SCeZXoYeVTYtIs5VuyS9RTTgVKKdxjesqSqycwngsUayXaOJRm1G250fr8M3mH8MdnUrpBd/wOMQ0Ki3lISOv4VCYLxyzYHjjDuVPDXN5bZyqlrx8+Hl+lH5SzQuTlqHulnqKPKVqjlTw4gkxRjOfWM+kMSCLKZ1mR0ueeINYp55KsZn1o6x4vEdVsrXO7xVSCQsN54ahmOLcY36oZaJd9zLsCVDOcW0P470K2vSdDg3plwuEc/ABUM5wDC1QznAMLVDOcAwtUM5wDC1QznAMLVDOcAwtUM5wDC1QznAMLVDOcAwtUM5zbO58/f843dkc1w7m9g3NgDc6BNTgH1uAcWINzYA3OgTWZc3//en/38x/pYZ4vv1R3tVHNcG7vZM61wDnoQO7cKNafP9/d/3R/5+L45dv3f/44+h93d/e//idNp41qhnN7p+2cd+vLL3c//fY37Rz0oemca96+fX/77R7noBs4B9ascm4c0jGeg3eQO7cFqhnO7R2cA2twDqzBObAG58AanINz8LMTP8+zha6YsAzn4Bz8NLHx9MtLp+nEOTiHdBb2NXMz4hycwwbOudnup0gnmF+NaoZz10Bv57LlFeLlXM5ANcO5a6C7c8dk7QA3f3e2oMAKVDOcuwZ6O5eBc5CwtXN+zZb3zOaumuHc3lngnH+fYDwHnTjlXFgZ6z2NHM5BRNO5PsLhHETUnesmHM5BRMU5P4Zb+iJyEtUM5/ZOybkOLw0JqhnO7Z2Cc25hxVKcb6FqhnN7p+DcBqhmOLd3cA6swTmwBufAGpwDa3AOrME5sOZzp8hTVlQznAMLVDOcAwtUM5zbOye7xS6oZji3d3AOrME5sAbnwBqcA2twDqzBObAmc4415mBjMuda4Bx0IHeONeZgW9rOscYc9KfpXLr2Es5BB3AOrFnlHGvMQQdy57ZANcO5vYNzYM31OVee3sevoXF4fHU/3ZxT754Nvo2fnXSKLvNbTcS3c2Fcq3NJfRQ3bkc21bybkbnf1YfbubldsfTM/xXX6dzDx2hK5aHJefw0eNCt1lu4Fi5taL12fVq7YRajp+eOCdpykc41Fzhzzr24Y4Jhfotre0bnomm/hyr8cHxxTZELmSJ+OEtnjE8Wtgp9XAi/PbqQoNvD33J60mLpojCJvlM62YWChXJusbHXXV7f8Zh4NvRQkuF0na5LhiXhlHHvktn1L9a56gJnY0l5k97cH0MZtZ2Tn1H70XIuma/++dHL4Tq+UtHLuekkplFSSQM23Ui2N13ZzffgcVGMOUly9frgLxddKx4Ky/T7hSdtzO0ZI8uLda66OMH0dHpdXo+388+6c9qWqGcN57JmZs5MuctrnSvtjbTQnigPUfUn18ouPSeV7SokPjycTw/jz+FCoYjiBi8u8LQuFnDFziUNWHfn9M007dwXtXNl50ITmITmR050P2sNZKSvJBsrMhXF8+NwlUm1xNcstnJOXH8Xqpmhc5k9fZ0LzAMdn0jmkyQbGVB3rqjsQLP6m87JFh/R7T89D+XmMhAKc8hGSCoq3pS0LhbQcs7f4MoEi6hmls4pmzkXmJs3d0xWSZEQDeeyuxNKbYA0qwucC0S3/Ppw+HD8+KTPw83j0015XJjSyG2NsnPzo7s6wSKq2WU5Fx8ZmpmpQZKzcqU0TX9i0idWnMsOHlRzKZfrfs5hw7m3TzdSYvGT43MrJ0Zjkul4Tfnr8fb0E1Kj7FzAZWZlgkVUswtzbqoSXw3uA00+novr7PTepnMD/hVyCrcrzaee67Y3nNO7mBIcyRrvktzaDskjkdbFAi7SObhocA6swTmwBufAGpwDa3AOrME5sKbsXPItxkXpm9dSVDOc2ztl53qjmuHc3sE5sAbnwBqcA2twDqzBObAG58CadK24cyNPWVHNcA4sUM1wDixQzXBu75zsFrugmuHc3sE5sAbnwBqcA2twDqzBObAG58CazDnWmIONyZxrgXPQgdw51piDbWk7xxpz0J+mc+naSzgHHcA5sGaVc6wxBx3IndsC1Qzn9g7OwXpqM34uA+dgPTgH1qhz2STGJ8E5WA/OQUyYlH2auD0IUV2AIZ6jXVeJqC2MMTuXzO++qMPFuesjTMtfNSaaYD+Zln9ce26pc7RzMJAtPpGvmTGtqFE1BudgBZlzYfmeJLw0slZJ1OHaOxd30++e3lU1w7mtKTp3YqQ19LZRZRs754SbPfNPQrRYz1pUM5zbmsy5dNBWZ5bJ2rljkj2X7KI8V1DNcG5rcufqi8TV156rL66XfBNeLPRIybkMnLsoCs4NlBeJk/HcENqdRUM9XVwv/T/EnPKJHtyzxLnsIVmNaoZze2eBc/59gvEcdOKUc6F9fU8jh3MQ0XSuj3A4BxF157oJh3MQUXHOj+EWvYUsQTXDub1Tcq7DS0OCaoZze6fgXPIdZ47zLVTNcG7vFJzbANUM5/YOzoE1OAfW4BxYg3NgDc6BNTgH1qRrxZ0becqKaoZzYIFqhnNggWqGc2CBaoZzYIFqhnNggWqGc2CBaoZzYIFqFjlHEAaBc4R14BxhHThHWAfOEdaBc4R14BxhHf8D7egBuFOu9qMAAAAASUVORK5CYII=;" vertex="1" parent="1">
          <mxGeometry x="354" y="380" width="209" height="188" as="geometry" />
        </mxCell>
        <mxCell id="9s_bkhRJLRccFdzS-PqJ-25" value="" style="shape=image;verticalLabelPosition=bottom;labelBackgroundColor=default;verticalAlign=top;aspect=fixed;imageAspect=0;image=data:image/png,iVBORw0KGgoAAAANSUhEUgAAANQAAAC8CAIAAACPGxd4AAAAAXNSR0IArs4c6QAAAARnQU1BAACxjwv8YQUAAAAJcEhZcwAADsMAAA7DAcdvqGQAAAASdEVYdFNvZnR3YXJlAEdyZWVuc2hvdF5VCAUAAAo/SURBVHhe7Z07bxy3Hkf19dTIlb5HCkFQt18gTbBwrSJN4koIhBQuhHS3M6DmlkaAlK5d3ws+Zob8kcOdB5f0bs4fp/DOg8Mhz5CckUHe/I8gOsWNbiCIVoF8RLdAPqJbIB/RLTLy/fbHn/98+w5QHTEN+aAdYhryQTvENOSDdohpyAftENOQD9ohpiEftENMQz5oh5iGfNAOMQ35oB1iGvJBO8S07fJ9+fjhZoynt/SA7vgcLs/b62HRHb0/3958OL7L9rdHc1q6fRtfj3c3j6/p9stGTNsqn6mnWgXty7pU35tYLZ+nnBkj2e3Hr9nta8vk5enm5u75S7LdYJ+EK/NPTNsonym12erZQLm+G1PITGHXFkry+Yfn8JJsv1zEtG3yVa6DMyS4h9nMVLehLF8hJxeKmFZZvmggmBSrKWsfQ/dkxk+ZCLob1525CDs1kwfT/U0DtWlvmI20iyxncv7uhivq9jCHsZp+dGgTdOGTDU+ZIpN45eFNZ8S0dfJF1TbFUDqvh6D4bPlOVegqYKybr8ensNZn6tuqOabprj54OdaoTzPXiuTGZ6VMBinrRp+ZwiAs0y4Oj5Y/KxnG5fIsmBwWLnpZiGnr5BuYqZ6YsGRtxRSe4HyCSd2Eh9l/B3szdZ+VLya5xGxmrDqlPjeTAfVV85O7ujCTmctETKsrX9C/uBhK9lQpZxPMdHOmgn062VMErewx2WwmowOSlDNunTwA+WLEtIryuUqdSj8s2VOlPJtgbflKmYyOSVPu1/Ilz8+lIqZVlK9UspmKOZ1gWjfhYflTYjRL6ZbkEvMpq0lK5h71lCVXFxjzKdnqiTaaYo16NDu0n37KC4c7PrHTjtDjF45x4JjNg6CVfSqTmWMWbPdskO/UUJi33Qwz1RB+N3l6C7rI4CwfaYGGe4MKi77FhFU7kweLtyqK4dz5TFoVJKJ85l3JfS3yhp2ST7KadK+le7xExLRt8v1raWpDpim9cMQ05FuJa+ca+Jd8FLwCxDTkW4//u0WyvSamib0y85APeiKmIR+0Q0xDPmiHmIZ80A4xDfmgHWIa8kE7xDTkg3aIacgH7RDTkA/aIaYhH7RDTEM+MHz69CndWB0xDfnAgHzQDeSDbiAfdAP5oBvIB91APuhGIt/fvz7c//yXHub4/MvsrjJiGvKBIZGvBPJBTVL5BsP+8/P9w08P9zaOn799/+evo/txf//w6381nTJiGvKBoSyfk+zzL/c//f43LR9UpiifbfC+fX///QH5oD7IB91YJd8w7GPMBzVI5TsHYhrygQH5oBvIB91APugG8kE3kA924WZ4fpnmV10xjxvywS7cDLvxFNZLJzZFPtiFzm2/ZhJL5INdIB904wzy2QUsplia2hxiGvJdD7Xlk6VT/Jhyz0zRYhryXQ/15ZNJ9+1M/MliISsQ05DveqgtXwLywTlYIJ/2whsQ05APDAX5xlXB9oz2HGIa8oGhIN+IfeFY2o9nEdOQDwxL5PM9746lv8Q05APDMvnsuoc7hn1iGvKBISPf6yEZ5NHywRnIymfeMibV3ILIjPmgNhn5Rv/G2NHhOsQ05ANDXr7aiGnIBwbkg24gH3QD+aAbyAfdQD7oxqdKkaYcIqYhH7RDTEM+aIeYhnxgONljVkFMQz4wIB90A/mgG8gH3UA+6AbyQTeQD7qRyMfCf9CKRL4SyAc1SeVj4T9oRFk+Fv6DM1KUT5e/Qj6oCfJBN1bJx8J/UJNUvnMgpiEfGJAPunHF8rlJzXWaDzfB9DAbyN4ZkJYwznPoIpkIZxfx7VwYVy+fVEx24/lw89wEK/LYGYbrXd3czu3dikV/fiiuXL7Hj9H81KYReno2QlSr/hK2zdOm1/lXp/0zc+ocXiom2JbLlq+46pyV79Ue41VzW2xrNMgXTaZu6vLD8dU2TjaCSdDNWeGc6LLImO/+fLjt0YUCwu3+38Hp0oaFK6KIx2M6yYW8jsG52eY/3OU8Ho6J55j3JelPD2eRkgUz7p6/DHuXzB9/+fLNrjo3FJlT6t3+wxRWWb7gZ9SilOST5QBenpwltk/M1UFwruuXp6qNkpImbbyRZK8ut+c697gohpxIrt4e3eWia8XD5WB1g8wjN+R2w+jz8uWbXQRifF6dN2/Hu+nnvHxh6xIKV5AvaXimzOR7w9K5QQsUtNmOKA+RB3Kt5NJTUsmuTOLmKT08Dj/NhXwRxU1gXOBaFwv4N8gnTVp1+cL3We33F7V8efl8oygR5ic40f6cazIjj4NkY1fGonh5MlcZnRNxk0A+x5x8iUZ15fNMgyGXSCJWkGykwrx8WXcNRQ+K8gVbXES3f3gx5WYz4AvTZMMnFRWvonWxgBn54iHpyjRTxLT28oWcTT7P1ODZY5LaiswoyJfcXUDQFY4EDe0C+TzRLb893nw4fjyED8bt0+E2P3ZUCrmdIyefNW9Kx7XT2XJeiph2ifLFR/qGZ2yigrNSt8I03YnSXc7IlxxsnLMp5yWYcliQ7/35Niix+BFyuQ1OlDewYYARpPz1eHf6UZkjK99R7sveS3qzyxHTLlK+sW5cfdjvO+mYL66803uL8hniPsjt0nyG59rtBfnCuxgTHEia85zl0+jCRrYkl5GTL+GHlQ8umiXyJW3tasQ05APDAvlcw/9DjvngojklXzIG3YSYhnxgKMpXxzzkgzzz8lUzD/kgz4x8bpyXe53fhJiGfGDIyVfhDUMQ05APDBn55CPiFNt1FNOQDwwZ+c6AmIZ8YEA+6AbyQTeQD7qBfNAN5INu6AJ+WyNNOURMQz5oh5iGfNAOMQ35wHCyx6yCmIZ8YEA+6AbyQTeQD7qBfNAN5INuIB90I5GPhf+gFYl8JZAPapLKx8J/0IiyfCz8B2ekKJ8uf4V8UBPkg26sko+F/6AmqXznQExDPjAgH+xgbo7UZSAf7AD5oBuhfMlE0CdBPtgB8sEMfqr7cTp8b0Y4E1Q0f3w88324GsfcAiSTfDJr/qK+GPmuGD+/56w60foFsurBsCDgUvlo+SAiWeQjXZtkXLlkVh3kgy0k8vmFkyScPdESN0FfjHywhax8J0ZjpiOOFOwkX/ScbJ+WFPl6kcinA7t5Jqs6yGcfgBMPyXLENORrQypfuprUsHLf/IKA8yseykfmxWYPZOVL1n/bi5iGfG3IyGfIr9wXjPlMhNUfDQfDFQ/1LxxTyovarZx8qw0+iZiGfGDIyOdsfo1ejFZ15SliGvKBIZXPfw/XAcCutlBMQz4wzMinXbZ9/9g+ChTTkA8MC+XLblyOmIZ8YEjlc68sMshDPqhPRj73HxSiN3T7rh390WUdYhrygSEnn75hJB8mVyOmIR8YsvIZoi+R2181HGIa8oFhVr6qiGnIBwbkg24gH3QD+aAbyAfdQD7ohi7gtzXSlEPENOSDdohpyAftENOQD9ohpiEftENMQz5oh5iGfNAOMQ35oB1iWkY+gmgTyEd0C+QjugXyEd0C+YhugXxEt0A+olv8H1dKebrFeBd6AAAAAElFTkSuQmCC;" vertex="1" parent="1">
          <mxGeometry x="350.5" y="180" width="212" height="188" as="geometry" />
        </mxCell>
      </root>
    </mxGraphModel>
  </diagram>
</mxfile>
